# xmcd
#
# Track frame offsets:
#	225
#	18362
#	31715
#	49570
#	68197
#	87027
#	104475
#	118705
#	134717
#	146700
#	157367
#
# Disc length: 2267 seconds
#
# Revision: 0
# Processed by: cddbd v1.5.2PL0 Copyright (c) Steve Scherf et al.
# Submitted via: dBpowerAMP V4.0
#
DISCID=9a08d80b
DTITLE=Winnie Chafe - Echoes
DYEAR=1900
DGENRE=Celtic
TTITLE0=Stella's Trip to Kamloops
TTITLE1=Caledonian Wedding Waltz
TTITLE2=Apple Day
TTITLE3=Echoes
TTITLE4=Step A' Plenty
TTITLE5=For the Love of My Father
TTITLE6=Plaisir d'Amour
TTITLE7=Bean Iain AongHais Nic Artair
TTITLE8=The German Waltz
TTITLE9=The PEI Waltz
TTITLE10=The Triplet Clog
EXTD=Recorded in 1988.
EXTT0=
EXTT1=
EXTT2=
EXTT3=
EXTT4=
EXTT5=
EXTT6=
EXTT7=
EXTT8=
EXTT9=
EXTT10=
PLAYORDER=
